<svg width="18" height="18" viewBox="0 0 18 18" fill="none" xmlns="http://www.w3.org/2000/svg">
<path d="M7.68793 10.5123C6.00804 8.83243 5.62873 7.15254 5.54316 6.47949C5.51925 6.29339 5.58329 6.10676 5.71643 5.97455L7.07588 4.61571C7.27585 4.41586 7.31134 4.10439 7.16145 3.86468L4.99695 0.503684C4.83112 0.238243 4.49063 0.142442 4.21072 0.282471L0.735934 1.91897C0.50958 2.03043 0.376441 2.27092 0.402141 2.52192C0.58421 4.25157 1.33828 8.50349 5.51676 12.6823C9.69524 16.8611 13.9466 17.6148 15.6771 17.7969C15.9281 17.8226 16.1686 17.6895 16.2801 17.4631L17.9166 13.9883C18.0561 13.709 17.9609 13.3694 17.6966 13.2033L14.3356 11.0394C14.096 10.8894 13.7845 10.9246 13.5845 11.1244L12.2257 12.4838C12.0935 12.617 11.9069 12.681 11.7208 12.6571C11.0477 12.5715 9.36782 12.1922 7.68793 10.5123Z" fill="#0D4C93"/>
<path d="M14.3587 9.60727C14.0235 9.60727 13.7518 9.33556 13.7518 9.00038C13.7489 6.48771 11.7127 4.4515 9.20004 4.44866C8.86486 4.44866 8.59314 4.17694 8.59314 3.84176C8.59314 3.50658 8.86486 3.23486 9.20004 3.23486C12.3828 3.23838 14.962 5.81763 14.9656 9.00038C14.9656 9.33556 14.6938 9.60727 14.3587 9.60727Z" fill="#0D4C93"/>
<path d="M17.3931 9.60709C17.058 9.60709 16.7862 9.33538 16.7862 9.0002C16.7816 4.81239 13.3878 1.41867 9.20004 1.41399C8.86486 1.41399 8.59314 1.14227 8.59314 0.807092C8.59314 0.471912 8.86486 0.200195 9.20004 0.200195C14.0579 0.205547 17.9947 4.14231 18 9.0002C18 9.16116 17.9361 9.31552 17.8223 9.42934C17.7085 9.54315 17.5541 9.60709 17.3931 9.60709Z" fill="#0D4C93"/>
</svg>
