<svg width="23" height="23" viewBox="0 0 23 23" fill="none" xmlns="http://www.w3.org/2000/svg">
<path d="M2.72934 15.9273C-0.909338 12.2885 -0.909264 6.36781 2.72934 2.72906C6.36809 -0.909688 12.2887 -0.909688 15.9274 2.72906C19.0144 5.81605 19.4819 10.4072 17.3312 13.9924C17.3312 13.9924 17.1768 14.2515 17.3854 14.46C18.5757 15.6503 22.1468 19.2214 22.1468 19.2214C23.0945 20.1691 23.3201 21.4942 22.4797 22.3348L22.335 22.4793C21.4946 23.3199 20.1694 23.0944 19.2217 22.1467C19.2217 22.1467 15.6582 18.5831 14.4703 17.3953C14.2517 17.1766 13.9926 17.3311 13.9926 17.3311C10.4075 19.4817 5.81632 19.0143 2.72934 15.9273ZM14.2045 14.2043C16.8931 11.5156 16.8931 7.14089 14.2044 4.45223C11.5157 1.76364 7.14102 1.76357 4.45243 4.45223C1.76377 7.14082 1.76377 11.5156 4.45243 14.2043C7.1411 16.8928 11.5157 16.8928 14.2045 14.2043Z" fill="#0D4C93"/>
<path d="M13.6087 8.77452C13.7339 8.77452 13.8611 8.74992 13.9837 8.69813C14.4735 8.49082 14.7027 7.92564 14.4954 7.43574C13.1924 4.35654 9.62729 2.91151 6.54816 4.2145C6.05834 4.42181 5.82917 4.98699 6.03648 5.47689C6.24387 5.96679 6.80889 6.19581 7.29894 5.98857C9.39976 5.09961 11.8324 6.08556 12.7212 8.18637C12.8768 8.5538 13.2334 8.77452 13.6087 8.77452Z" fill="#0D4C93"/>
</svg>
